<svg xmlns="http://www.w3.org/2000/svg" version="1.1" xmlns:xlink="http://www.w3.org/1999/xlink" xmlns:svgjs="http://svgjs.dev/svgjs" width="1440" height="560" preserveAspectRatio="none" viewBox="0 0 1440 560"><g mask="url(&quot;#SvgjsMask1008&quot;)" fill="none"><rect width="1440" height="560" x="0" y="0" fill="rgba(6, 7, 108, 0.2)"></rect><path d="M0 36.67C8.34 11.28 19.04 7.05 45.97 0C89.04 -11.28 92.99 0 140 0C210 0 210 0 280 0C350 0 350 0 420 0C490 0 490 0 560 0C585.45 0 596.67 -17.41 610.91 0C653.94 52.59 640.12 71.47 674.55 140C684.67 160.13 686.24 177.33 700 177.33C714.97 177.33 716.5 159.08 732 140C786.5 72.91 771.55 39.62 840 5C895.55 -23.1 915.38 -7.23 980 14.55C1055.38 39.95 1067.13 103.78 1120 99.35C1153.87 96.51 1118.76 24.64 1153.48 0C1188.76 -25.03 1206.74 0 1260 0C1330 0 1330 0 1400 0C1470 0 1491.3 -21.3 1540 0C1561.3 9.32 1546.31 31.79 1540 61.25C1531.31 101.79 1510 102.74 1510 140C1510 162.11 1535 156.67 1540 180C1550 226.67 1540 230 1540 280C1540 330.81 1551.44 335.19 1540 381.61C1534.19 405.19 1505.51 397.68 1505.51 420C1505.51 460.95 1528.86 462.92 1540 508.15C1546.1 532.92 1558.92 552.99 1540 560C1488.92 578.92 1470 560 1400 560C1330 560 1330 560 1260 560C1190 560 1190 560 1120 560C1050 560 1050 560 980 560C910 560 910 560 840 560C770 560 770 560 700 560C630 560 630 560 560 560C490 560 490 560 420 560C374.79 560 370.35 572.16 329.58 560C300.35 551.28 308.28 518.25 280 518.25C229.4 518.25 226.75 543.62 171.82 560C156.75 564.49 155.91 560 140 560C70 560 35 595 0 560C-35 525 0 490 0 420C0 390.38 -17.69 360.77 0 360.77C37.31 360.77 62.83 382.36 110 420C132.83 438.22 129.44 472.5 140 472.5C149.33 472.5 147.54 446.56 149.77 420C155.62 350.31 160.25 347.75 156.15 280C155.36 266.98 152.58 260.66 140 258.46C74.51 247.02 38.79 285.55 0 252.73C-31.21 226.32 0 196.37 0 140C0 88.34 -14.65 81.28 0 36.67" stroke="rgba(6, 7, 108, 0.4)" stroke-width="2"></path><path d="M420 135.48C418.89 135.48 417.99 137.48 417.59 140C406.54 209.74 396.09 214.3 397.09 280C397.3 293.85 407.13 299.09 420 299.09C441.09 299.09 464.76 299.9 465 280C465.72 220.36 443.69 209.92 421.92 140C421.19 137.66 421.06 135.48 420 135.48" stroke="rgba(6, 7, 108, 0.4)" stroke-width="2"></path><path d="M1260 261.33C1250.43 261.33 1242.22 271.1 1242.22 280C1242.22 288.11 1250.57 295.34 1260 295.34C1271.38 295.34 1283.83 288.22 1283.83 280C1283.83 271.22 1271.24 261.33 1260 261.33" stroke="rgba(6, 7, 108, 0.4)" stroke-width="2"></path><path d="M980 353.68C945.27 358.86 929.6 390.2 929.6 420C929.6 442.75 951.49 445.43 980 458.77C1046.69 489.98 1069.18 521.04 1120 509.09C1151.59 501.66 1144.81 461.73 1144.81 420C1144.81 402.98 1137.01 398.43 1120 391.59C1054.6 365.27 1040.47 344.66 980 353.68" stroke="rgba(6, 7, 108, 0.4)" stroke-width="2"></path><path d="M0 78.33C32.94 31.38 45.68 29.39 98.21 0C115.68 -9.78 119.11 0 140 0C210 0 210 0 280 0C350 0 350 0 420 0C435.91 0 436.59 -4.05 451.82 0C506.59 14.55 516.67 4.03 560 37.19C608.15 74.03 598.14 88.07 634.77 140C668.14 187.31 664.75 235.67 700 235.67C738.36 235.67 741.7 188.41 782 140C811.7 104.33 800.56 83.44 840 67.5C899.56 43.44 917.08 41.2 980 60C1038.41 77.45 1035.1 96.27 1082.67 140C1105.1 160.62 1099.32 188.7 1120 188.7C1144.03 188.7 1160.1 171.64 1172.09 140C1195.86 77.29 1161.91 47.15 1191.52 0C1205.87 -22.85 1225.76 0 1260 0C1321.76 0 1325.04 -7.47 1383.53 0C1395.04 1.47 1393.73 7.51 1400 17.87C1436.13 77.51 1430.56 81.28 1468.33 140C1500.56 190.12 1513.88 184.54 1540 235.56C1549.72 254.54 1540 257.78 1540 280C1540 302.58 1551.14 306.85 1540 325.16C1508.53 376.85 1463.97 365.51 1454.78 420C1444.16 482.93 1516.67 518.38 1500.38 560C1489.28 588.38 1450.19 560 1400 560C1330 560 1330 560 1260 560C1224 560 1200.04 583.77 1188 560C1164.59 513.77 1168.49 482.06 1189.11 420C1204.49 373.7 1220.08 376.32 1260 343.29C1304.68 306.32 1358.3 313.92 1358.3 280C1358.3 243.77 1306.35 203 1260 203C1220.53 203 1224.53 242.72 1186.67 280C1154.53 311.65 1157.48 340.87 1120 340.87C1064.14 340.87 1059.19 311.78 1000 280C989.19 274.2 989.34 265.71 980 265.71C972.47 265.71 972.36 272.19 966.27 280C912.16 349.34 855.92 357.57 859.6 420C862.78 473.88 917.94 469.04 980 512.62C1017.62 539.04 1058.97 547.25 1058.97 560C1058.97 570.94 1019.49 560 980 560C910 560 910 560 840 560C770 560 770 560 700 560C630 560 630 560 560 560C490 560 490 560 420 560C411.25 560 409.4 565.08 402.5 560C339.4 513.5 341.99 507.49 280 456.84C256.32 437.49 239.75 446.86 231.16 420C211.48 358.44 246.34 343.07 223.46 280C200.76 217.43 194.66 186.51 140 168.72C82.93 150.15 47.84 217.08 0 207.27C-22.16 202.72 0 173.63 0 140C0 109.16 -16.17 101.38 0 78.33" stroke="rgba(6, 7, 108, 0.4)" stroke-width="2"></path><path d="M420 22.58C391.24 22.58 378.18 77.72 357.24 140C334.91 206.43 315.95 220.86 333.45 280C347.33 326.92 371.6 348.8 420 352.12C484.87 356.58 490.29 324.52 560 295.56C577.09 288.46 593.6 287.84 593.6 280C593.6 272.13 572.06 277.8 560 264.15C510.19 207.8 508.08 205.95 469.86 140C438.08 85.16 447.55 22.58 420 22.58" stroke="rgba(6, 7, 108, 0.4)" stroke-width="2"></path><path d="M0 120C21.84 120 57.93 129.6 57.93 140C57.93 150.51 21.42 161.82 0 161.82C-7.55 161.82 0 150.91 0 140C0 130 -7.13 120 0 120" stroke="rgba(6, 7, 108, 0.4)" stroke-width="2"></path><path d="M239.17 140C209.16 70.44 168.82 42.37 181.18 0C189.24 -27.63 230.59 0 280 0C306.25 0 330.25 -18.66 332.5 0C338.7 51.34 313.03 69.63 296.9 140C286.78 184.17 293.87 229.09 280 229.09C265.01 229.09 258.57 184.99 239.17 140" stroke="rgba(6, 7, 108, 0.4)" stroke-width="2"></path><path d="M517.81 140C517.81 114.97 540 91.88 560 91.88C578.6 91.88 595 115.18 595 140C595 168.3 578.75 198.11 560 198.11C540.15 198.11 517.81 168.09 517.81 140" stroke="rgba(6, 7, 108, 0.4)" stroke-width="2"></path><path d="M832 140C835.76 134.82 833.88 131.43 840 130C907.88 114.15 913.95 101.87 980 105.45C1006.12 106.87 1024.33 120.23 1024.33 140C1024.33 164.65 1003.5 168.32 980 194.29C940.16 238.32 936.57 235.21 897.65 280C866.57 315.76 874.76 355.38 840 355.38C791.49 355.38 732.85 326.76 731.11 280C728.85 219.07 781.32 209.82 832 140" stroke="rgba(6, 7, 108, 0.4)" stroke-width="2"></path><path d="M1253.49 140C1239.09 71.53 1226.89 57.65 1229.57 0C1230.14 -12.35 1244.78 0 1260 0C1287.45 0 1293.61 -14.04 1314.9 0C1363.61 32.13 1361.05 43.56 1400 92.34C1416.94 113.56 1426.67 114.84 1426.67 140C1426.67 180.15 1429.34 222.14 1400 222.96C1346 224.47 1329.77 184.18 1260 144.67C1256.52 142.7 1254.3 143.86 1253.49 140" stroke="rgba(6, 7, 108, 0.4)" stroke-width="2"></path><path d="M1100 280C1100 273.3 1111.11 264.78 1120 264.78C1126.67 264.78 1131.11 272.95 1131.11 280C1131.11 285.63 1126.25 290.14 1120 290.14C1110.69 290.14 1100 285.98 1100 280" stroke="rgba(6, 7, 108, 0.4)" stroke-width="2"></path><path d="M362.35 420C362.35 407.82 391.51 413.74 420 405.15C490.34 383.93 494.09 356.02 560 360.37C606.46 363.44 644.74 386.53 644.74 420C644.74 458.71 610.34 496.3 560 504.74C497.97 515.14 487.4 486.58 420 457.69C388.57 444.21 362.35 434.09 362.35 420" stroke="rgba(6, 7, 108, 0.4)" stroke-width="2"></path><path d="M1233.42 420C1233.42 402.4 1241.81 393.58 1260 391.23C1325.1 382.81 1337.71 386.02 1400 398.46C1409.74 400.41 1401.78 409.28 1404.06 420C1418.95 490.05 1435.98 503.54 1434.34 560C1433.95 573.54 1417.17 560 1400 560C1354.5 560 1349.52 572.89 1309 560C1279.52 550.62 1275.14 543.49 1260 515.45C1237.35 473.49 1233.42 464.51 1233.42 420" stroke="rgba(6, 7, 108, 0.4)" stroke-width="2"></path></g><defs><mask id="SvgjsMask1008"><rect width="1440" height="560" fill="#ffffff"></rect></mask></defs></svg>